<svg xmlns="http://www.w3.org/2000/svg" width="400" height="400" viewBox="0 0 400 400"><title>Support ticket logo</title><rect width="175" height="215" x="90" y="125" fill="#7F1D1D" rx="13"/><rect width="175" height="215" x="125" y="90" fill="#B91C1C" rx="13"/><rect width="175" height="215" x="160" y="55" fill="#EF4444" rx="13"/><line x1="180" x2="316" y1="103" y2="103" stroke="#000" stroke-linecap="round" stroke-width="3"/><line x1="180" x2="316" y1="134" y2="134" stroke="#000" stroke-linecap="round" stroke-width="3"/><line x1="180" x2="316" y1="165" y2="165" stroke="#000" stroke-linecap="round" stroke-width="3"/><line x1="180" x2="316" y1="196" y2="196" stroke="#000" stroke-linecap="round" stroke-width="3"/><line x1="180" x2="316" y1="227" y2="227" stroke="#000" stroke-linecap="round" stroke-width="3"/><circle cx="128" cy="300" r="48" fill="#fff" stroke="#000" stroke-width="5"/><g><path fill="#DC2626" d="M1 21h4V9H1v12zm22-11c0-1.1-.9-2-2-2h-6.31l.95-4.57.03-.32c0-.41-.17-.79-.44-1.06L14.17 1 7.59 7.59C7.22 7.95 7 9 7 9v10c0 1.1.9 2 2 2h9c.83 0 1.54-.5 1.84-1.22l3.02-7.05c.09-.23.14-.47.14-.73v-2z" transform="translate(104,276) scale(2.0)"/></g></svg>